<svg id="Layer_2" data-name="Layer 2" xmlns="http://www.w3.org/2000/svg" viewBox="0 0 1024 1024"><defs><style>.cls-1,.cls-2{fill:#fff;}.cls-1{opacity:0.1;}</style></defs><path class="cls-1" d="M513.42,184.39,798.19,348.8V677.61L513.42,842,228.66,677.61V348.8L513.42,184.39m0-152.85L96.28,272.37V754L513.42,994.87,930.56,754V272.37L513.42,31.54Z"/><path class="cls-2" d="M512.89,1014,79,763.5v-501L512.89,12,946.76,262.5v501ZM112.14,744.37,512.89,975.74,913.63,744.37V281.63L512.89,50.26,112.14,281.63Z"/><polygon class="cls-2" points="96.28 272.37 228.66 348.8 228.66 677.61 96.28 754.04 96.28 272.37"/><polygon class="cls-2" points="798.18 348.8 930.56 272.37 930.56 754.04 513.42 994.87 513.42 842.02 799.45 678.91 798.18 348.8"/><rect class="cls-2" x="508.74" y="512.81" width="8.28" height="474.15"/><rect class="cls-2" x="303.61" y="157.47" width="8.28" height="474.18" transform="translate(-187.83 463.8) rotate(-60)"/><rect class="cls-2" x="481.49" y="390.27" width="473.59" height="8.28" transform="translate(-100.97 412.06) rotate(-30.01)"/></svg>