<?xml version="1.0" encoding="UTF-8"?>
<svg id="Layer_2" data-name="Layer 2" xmlns="http://www.w3.org/2000/svg" viewBox="0 0 512 512">
  <defs>
    <style>
      .cls-1 {
        fill: #1c1c1c;
      }
    </style>
  </defs>
  <path class="cls-1" d="m181.55,32.24h-.67c-42.33-.01-79.6,27.7-91.63,68.27L2.81,389.92c-1.86,6.43-2.81,12.87-2.81,19.09,0,35.6,28.75,66.63,66.73,66.63,29.36,0,55.3-19.4,63.82-47.64l24.02-81.56c-17.4-3.27-30.61-18.59-30.61-36.93v-118.03c0-16.72,10.76-31.18,26.77-35.99,3.53-1.06,7.17-1.61,10.83-1.61,12.65,0,24.38,6.32,31.34,16.88l9.27,14.04,2.71-9.17-11.09-17.08c-11.28-17.38-6.32-40.7,11.08-51.99,6.11-3.96,13.17-6.05,20.44-6.05.57,0,1.13.01,1.69.04l1.55-5.26c9.26-31.43-14.23-62.94-46.99-63.06Z"/>
  <path class="cls-1" d="m445.27,32.23c-29.36,0-55.3,19.42-63.82,47.64l-25.6,86.89c5.8,6.59,9.32,15.26,9.32,24.72v104.17c0,16.52-11.06,31.34-26.93,36.04-3.45,1.03-7.05,1.55-10.65,1.55-6.91,0-13.51-1.86-19.22-5.27l-4.37,14.82c3.4,13.21-.64,27.56-10.91,37.02l-9.64,32.76c-9.26,31.43,14.23,62.96,47.01,63.07h.66c42.35,0,79.6-27.7,91.63-68.29l86.43-289.41c1.88-6.43,2.81-12.87,2.81-19.09,0-35.6-28.75-66.63-66.73-66.63Z"/>
  <path class="cls-1" d="m267.63,368.27c-5.23,0-10.35-2.54-13.44-7.23l-76.57-115.99v64.47c0,8.89-7.2,16.09-16.09,16.09s-16.09-7.2-16.09-16.09v-118.04c0-7.1,4.66-13.36,11.46-15.41,6.83-2.05,14.14.61,18.06,6.55l106.08,160.7c4.89,7.41,2.85,17.39-4.57,22.29-2.73,1.8-5.8,2.66-8.84,2.66Z"/>
  <path class="cls-1" d="m327.6,311.74c-5.35,0-10.47-2.68-13.49-7.33l-102.28-157.56c-4.83-7.45-2.72-17.42,4.73-22.26,7.46-4.83,17.42-2.71,22.26,4.73l72.7,112v-49.86c0-8.89,7.2-16.09,16.09-16.09s16.09,7.2,16.09,16.09v104.18c0,7.13-4.69,13.4-11.52,15.43-1.51.45-3.05.66-4.57.66Z"/>
</svg>