<?xml version="1.0" encoding="UTF-8"?>
<svg xmlns="http://www.w3.org/2000/svg" viewBox="0 0 512 512">
  <defs>
    <style>
      .cls-1 {
        fill: #0950cd;
      }

      .cls-2 {
        fill: #4af3f8;
      }

      .cls-3 {
        fill: #1c1c1c;
      }
    </style>
  </defs>
  <g id="BG">
    <rect class="cls-3" width="512" height="512" rx="107.38" ry="107.38"/>
  </g>
  <g id="Layer_2" data-name="Layer 2">
    <g>
      <path class="cls-1" d="m208.56,114.75h-.43c-26.97,0-50.72,17.65-58.39,43.5l-55.07,184.4c-1.19,4.1-1.79,8.2-1.79,12.16,0,22.68,18.32,42.45,42.52,42.45,18.71,0,35.24-12.36,40.66-30.35l15.3-51.97c-11.09-2.08-19.5-11.84-19.5-23.53v-75.21c0-10.66,6.86-19.87,17.06-22.93,2.25-.68,4.57-1.02,6.9-1.02,8.06,0,15.53,4.03,19.97,10.76l5.91,8.95,1.73-5.84-7.07-10.88c-7.19-11.08-4.03-25.93,7.06-33.13,3.89-2.52,8.39-3.85,13.02-3.85.37,0,.72,0,1.08.03l.99-3.35c5.9-20.03-9.07-40.11-29.94-40.18Z"/>
      <path class="cls-1" d="m376.6,114.74c-18.71,0-35.24,12.37-40.66,30.35l-16.31,55.36c3.7,4.2,5.94,9.72,5.94,15.75v66.38c0,10.53-7.05,19.97-17.16,22.97-2.2.66-4.49.99-6.78.99-4.4,0-8.61-1.19-12.25-3.36l-2.79,9.44c2.16,8.42-.41,17.56-6.95,23.59l-6.15,20.87c-5.9,20.03,9.07,40.11,29.95,40.19h.42c26.98,0,50.72-17.65,58.39-43.51l55.07-184.4c1.2-4.1,1.79-8.2,1.79-12.16,0-22.68-18.32-42.45-42.52-42.45Z"/>
      <path class="cls-2" d="m263.41,328.85c-3.33,0-6.59-1.62-8.56-4.6l-48.79-73.91v41.08c0,5.66-4.59,10.25-10.25,10.25s-10.25-4.59-10.25-10.25v-75.21c0-4.52,2.97-8.51,7.3-9.82,4.35-1.31,9.01.39,11.5,4.17l67.59,102.39c3.12,4.72,1.82,11.08-2.91,14.2-1.74,1.15-3.7,1.69-5.64,1.69Z"/>
      <path class="cls-2" d="m301.62,292.84c-3.41,0-6.67-1.7-8.6-4.67l-65.17-100.39c-3.08-4.75-1.73-11.1,3.02-14.18,4.75-3.08,11.1-1.72,14.18,3.02l46.32,71.36v-31.77c0-5.66,4.59-10.25,10.25-10.25s10.25,4.59,10.25,10.25v66.38c0,4.54-2.99,8.54-7.34,9.83-.96.28-1.94.42-2.91.42Z"/>
    </g>
  </g>
</svg>